<?xml version="1.0" encoding="utf-8"?>
<!-- Generator: Adobe Illustrator 27.2.0, SVG Export Plug-In . SVG Version: 6.00 Build 0)  -->
<svg version="1.1" id="Artwork" xmlns="http://www.w3.org/2000/svg" xmlns:xlink="http://www.w3.org/1999/xlink" x="0px" y="0px"
	 viewBox="0 0 1123 284" style="enable-background:new 0 0 1123 284;" xml:space="preserve">
<style type="text/css">
	.st0{fill:#FFFFFF;}
	.st1{fill:#ED1C24;}
	.st2{fill:#43525A;}
</style>
<g>
	<g>
		<path class="st2" d="M370.34,162.34c0,21.24-16.71,32.71-38.12,32.71c-9.76,0-18.8-2.66-23.84-5.57c-1.57-0.9-2.69-1.7-3.38-2.39
			c-2.63-2.62-2.56-15.24-0.28-16.91c3.53-2.58,9.61,8,27.58,8c9.04,0,16.32-4.1,16.32-13.13c0-9.68-12.66-13.49-21.89-17.75
			c-13.46-6.21-21.89-14.2-21.89-29.21c0-19.37,14.88-29.69,34.54-29.69c8,0,21.94,3.16,24.16,7.56c1.08,2.17,1.42,13.53-0.48,15.28
			c-2.75,2.53-9.18-6.53-23.36-6.53c-9.21,0-13.61,4.78-13.61,11.06c0,9.68,12.49,13.22,22.13,17.67
			C361.41,139.54,370.34,147.3,370.34,162.34z"/>
		<path class="st2" d="M446.42,190.52c0,3.28-6.63,3.18-9.95,3.18c-3.34,0-10.03,0.09-10.03-3.18V150c0-9.45-2.49-17.59-11.94-17.59
			c-6.29,0-11.91,5.94-15.84,10.9v47.2c0,3.28-6.71,3.18-10.03,3.18c-3.39,0-10.03,0.05-10.03-3.18V85.86
			c0-3.33,6.48-3.42,10.03-3.42c3.42,0,10.03,0.05,10.03,3.42v39.24c6.08-5.99,13.13-10.11,21.73-10.11
			c19.26,0,26.03,13.04,26.03,32V190.52z"/>
		<path class="st2" d="M530.74,154.3c0,25.2-13.67,40.75-38.92,40.75c-23.68,0-37.17-12.48-37.17-39.32
			c0-25.18,13.7-40.75,38.92-40.75C518.24,114.99,530.74,128.16,530.74,154.3z M510.13,155.1c0-13.49-3.78-24.27-17.27-24.27
			c-13.18,0-17.59,10.87-17.59,24.04c0,13.44,3.83,24.2,17.27,24.2C505.84,179.06,510.13,168.41,510.13,155.1z"/>
		<path class="st2" d="M580.22,191.51c-2.39,2.53-10.04,3.3-13.85,3.3c-16.83,0-23.16-8.89-23.16-25.39v-36.37h-8.52
			c-2.93,0-3.1-5.17-3.1-8.12c0-3.29,0.09-8.12,3.18-8.12h8.44v-15.84c0-3.42,6.33-3.34,9.95-3.34c3.49,0,10.03-0.09,10.03,3.34
			v15.84h15.44c3.14,0,3.18,4.92,3.18,8.12c0,2.94-0.18,8.12-3.1,8.12h-15.52v33.35c0,6.84,1.52,11.62,8.36,11.62
			c5.46,0,7.19-2.67,8.95-1.55C582.02,177.45,582.61,188.99,580.22,191.51z"/>
		<path class="st2" d="M653.3,162.34c0,21.21-16.65,32.71-38.12,32.71c-9.76,0-18.89-2.72-23.84-5.57
			c-2.85-1.64-4.24-2.61-4.85-5.37c-0.56-2.48-1.02-12.3,1.19-13.93c3.53-2.58,9.61,8,27.58,8c9.04,0,16.32-4.09,16.32-13.13
			c0-9.67-12.62-13.47-21.89-17.75c-13.46-6.21-21.89-14.2-21.89-29.21c0-19,14.4-29.69,34.54-29.69c8.76,0,22.06,3.4,24.16,7.56
			c0.86,1.73,0.84,5.18,0.84,7.24c0,3.88,0.1,8.52-2.71,8.52c-2.43,0-9.84-7-21.97-7c-7.66,0-13.61,3.54-13.61,11.06
			c0,9.68,12.5,13.23,22.13,17.67C644.37,139.54,653.3,147.3,653.3,162.34z"/>
		<path class="st2" d="M733.04,153.98c0,22.19-8.78,41.07-30.96,41.07c-8.51,0-14.16-3.69-20.45-9.79v33.43
			c0,3.38-6.63,3.42-10.03,3.42c-3.51,0-10.03-0.1-10.03-3.42v-99.17c0-3.12,5.03-3.18,8.52-3.18c3.19,0,8.44,0.02,8.44,3.18v8.36
			c7.62-7.81,14.82-12.89,25.63-12.89C725.19,114.99,733.04,132.94,733.04,153.98z M712.19,155.42c0-11.11-2.86-23.32-13.93-23.32
			c-6.98,0-12.38,5.71-16.63,11.38v23.4c4.08,5.15,9.46,11.14,16,11.14C708.12,178.02,712.19,165.95,712.19,155.42z"/>
		<path class="st2" d="M814.39,154.3c0,25-13.41,40.75-38.92,40.75c-23.62,0-37.17-12.43-37.17-39.32
			c0-24.78,13.33-40.75,38.92-40.75C801.57,114.99,814.39,127.88,814.39,154.3z M793.77,155.1c0-13.5-3.77-24.27-17.27-24.27
			c-13.17,0-17.59,10.85-17.59,24.04c0,13.38,3.79,24.2,17.27,24.2C789.49,179.06,793.77,168.41,793.77,155.1z"/>
		<path class="st2" d="M916.16,183.51c0,2.28-0.09,6.34-1.63,7.96c-2.35,2.47-9.87,3.34-13.73,3.34c-10.88,0-18.92-3.62-21.89-14.09
			c-1.86-6.55-1.35-10.49-1.35-47.67h-30.48v33.35c0,6.86,1.53,11.62,8.36,11.62c5.41,0,7.21-2.66,8.95-1.55
			c1.2,0.77,1.31,5.61,1.31,7.04c0,2.63-0.01,6.83-1.83,8.32c-2.68,2.18-9.68,2.98-13.61,2.98c-16.83,0-23.16-8.89-23.16-25.39
			v-36.37h-8.52c-2.93,0-3.1-5.19-3.1-8.12c0-3.29,0.09-8.12,3.18-8.12h8.44v-15.84c0-3.45,6.42-3.34,9.95-3.34
			c3.49,0,10.03-0.09,10.03,3.34v15.84h30.48V97.16c0-2.34,2.61-2.79,5.13-3.1c1.3-0.16,2.91-0.24,4.82-0.24
			c3.38,0,10.03-0.01,10.03,3.34v19.66h15.44c0.53,0,0.98,0.13,1.35,0.4c1.79,1.28,1.83,5.37,1.83,7.72c0,2.85-0.23,8.12-3.1,8.12
			h-15.52v33.35c0,3.87,0.6,6.78,1.79,8.72c2.15,3.49,7.77,3.45,11.66,1.99c1.62-0.61,2.85-1.31,3.82-0.64
			C916.02,177.33,916.16,182,916.16,183.51z"/>
		<path class="st2" d="M982.62,160.11H939.4c0,13.14,6.28,19.82,19.42,19.82c3.5,0,6.58-0.25,9.23-0.76
			c9.25-1.76,12.39-4.1,14.8-4.1c2.56,0,2.55,3.07,2.55,6.61c0,4.29-0.18,6.16-1.63,7.72c-1.89,2.04-14.56,5.65-26.78,5.65
			c-25.99,0-37.96-13.25-37.96-39.24c0-23.93,12.29-40.83,36.21-40.83c22.25,0,33.51,13.22,33.51,34.78
			C988.74,152.99,989.61,160.11,982.62,160.11z M969.32,147.22c0.3-10.59-3.97-18.07-14.56-18.07c-10.05,0-14.93,7.94-15.36,18.07
			H969.32z"/>
		<path class="st2" d="M1043.62,126.13c0,2.08,0.04,7.83-1.47,8.99c-1.83,1.4-4.56-1.35-9.35-1.35c-6.24,0-11.36,7.21-14.72,12.5
			v44.25c0,3.28-6.71,3.18-10.03,3.18c-3.39,0-10.03,0.05-10.03-3.18v-70.99c0-3.13,5.19-3.18,8.6-3.18c3.37,0,8.52-0.02,8.52,3.18
			v8.83c4.87-6.96,10.53-13.37,18.86-13.37c2.35,0,6.93,0.66,8.32,1.91C1043.78,118.24,1043.62,122.67,1043.62,126.13z"/>
		<path class="st2" d="M1088.65,128.42c0,10.83-8.63,19.09-19.19,19.09c-10.7,0-18.99-7.69-18.99-18.99
			c0-10.56,8.32-18.99,19.19-18.99C1080.8,109.52,1088.65,117.57,1088.65,128.42z M1084.25,128.71c0-8.77-5.7-15.33-14.6-15.33
			c-8.93,0-14.79,6.73-14.79,14.94c0,8.97,6.01,15.33,14.6,15.33C1078.33,143.65,1084.25,136.97,1084.25,128.71z M1078.42,138.01
			c-0.24,0.57-4.06,0.49-4.83,0.2c-0.45-0.17-0.62-0.47-0.76-0.95c-1.23-4.46-1.54-6.59-4.83-6.59h-1.32v6.84
			c0,1.02-1.18,0.93-2.34,0.93c-1.12,0-2.49,0.07-2.49-0.93v-17.53c0-1.42,0.7-2.29,2.15-2.29h5.62c4.49,0,8.11,1.38,8.11,5.86
			c0,3-1.68,4.72-4.69,5.47c0.78,0.26,1.51,0.7,2.2,1.32C1076.77,131.73,1078.74,137.26,1078.42,138.01z M1072.44,124.12
			c0-2.97-2.84-2.64-5.76-2.64v5.47C1069.61,126.95,1072.44,127.24,1072.44,124.12z"/>
	</g>
	<g>
		<g>
			<g>
				<circle class="st1" cx="185.1" cy="152.56" r="20.24"/>
				<path class="st2" d="M187.7,250c-4.69,0-8.5-3.81-8.5-8.5v-33.8c0-15.71,12.79-28.5,28.5-28.5h33.8c4.69,0,8.5,3.81,8.5,8.5
					s-3.81,8.5-8.5,8.5h-33.8c-6.34,0-11.5,5.16-11.5,11.5v33.8C196.2,246.19,192.4,250,187.7,250z"/>
				<path class="st2" d="M96.3,250c-4.69,0-8.5-3.81-8.5-8.5v-33.8c0-6.34-5.16-11.5-11.5-11.5H42.5c-4.69,0-8.5-3.81-8.5-8.5
					s3.81-8.5,8.5-8.5h33.8c15.71,0,28.5,12.79,28.5,28.5v33.8C104.8,246.19,100.99,250,96.3,250z"/>
				<path class="st2" d="M241.5,104.8h-33.8c-15.71,0-28.5-12.79-28.5-28.5V42.5c0-4.69,3.81-8.5,8.5-8.5s8.5,3.81,8.5,8.5v33.8
					c0,6.34,5.16,11.5,11.5,11.5h33.8c4.69,0,8.5,3.81,8.5,8.5S246.19,104.8,241.5,104.8z"/>
				<path class="st2" d="M76.3,104.8H42.5c-4.69,0-8.5-3.81-8.5-8.5s3.81-8.5,8.5-8.5h33.8c6.34,0,11.5-5.16,11.5-11.5V42.5
					c0-4.69,3.81-8.5,8.5-8.5s8.5,3.81,8.5,8.5v33.8C104.8,92.01,92.01,104.8,76.3,104.8z"/>
			</g>
		</g>
	</g>
</g>
</svg>
