<svg id="Layer_1" data-name="Layer 1" xmlns="http://www.w3.org/2000/svg" viewBox="0 0 299.46 55.44"><defs><style>.cls-1{fill:#fff;}.cls-2{fill:#ec3626;}</style></defs><rect x="0.06" width="299.34" height="55.44"/><path class="cls-1" d="M62.77,32.11a17.17,17.17,0,0,0,3.82,2.66,10.17,10.17,0,0,0,4.52.95,10.62,10.62,0,0,0,1.66-.16A6.94,6.94,0,0,0,74.53,35a4.18,4.18,0,0,0,1.4-1,2.32,2.32,0,0,0,.57-1.58,2,2,0,0,0-.81-1.68,5.82,5.82,0,0,0-2.43-.88l-6-1a11.11,11.11,0,0,1-6.15-2.69A7,7,0,0,1,59,20.93a9.6,9.6,0,0,1,1-4.47,8.46,8.46,0,0,1,2.61-3.06,11.64,11.64,0,0,1,3.77-1.74,17.1,17.1,0,0,1,4.44-.57,17.52,17.52,0,0,1,6.94,1.42,16.12,16.12,0,0,1,5.77,4.13L78,20.57a9.92,9.92,0,0,0-7.74-3.65,4.88,4.88,0,0,0-1.34.21,5.27,5.27,0,0,0-1.33.56,3.47,3.47,0,0,0-1,.92,2,2,0,0,0-.4,1.23,2,2,0,0,0,1,1.8,8,8,0,0,0,3,.95L73,23A37.76,37.76,0,0,1,77,24a12.47,12.47,0,0,1,3.34,1.48,6.89,6.89,0,0,1,2.27,2.35,6.69,6.69,0,0,1,.83,3.48,9.68,9.68,0,0,1-1.29,5.27,9.37,9.37,0,0,1-3.28,3.14,13.08,13.08,0,0,1-4.3,1.49,26.05,26.05,0,0,1-4.33.39,17.74,17.74,0,0,1-6.87-1.32,17.41,17.41,0,0,1-6.13-4.55Z"/><path class="cls-1" d="M86.54,11.9h6.32v9.32h.08a4.84,4.84,0,0,1,1.15-1.1,9.3,9.3,0,0,1,1.52-.83,8.68,8.68,0,0,1,3.24-.66A6.54,6.54,0,0,1,104,20.47a7.4,7.4,0,0,1,1.66,5.12V40.74H99.3V27.82a5.88,5.88,0,0,0-.3-2.05,3.51,3.51,0,0,0-.77-1.23,2.7,2.7,0,0,0-1-.63,3.28,3.28,0,0,0-2.2,0,2.73,2.73,0,0,0-1.06.75,4.24,4.24,0,0,0-.79,1.52,8.54,8.54,0,0,0-.3,2.47V40.74H86.54Z"/><path class="cls-1" d="M119.83,18.63a13.9,13.9,0,0,1,4.62.74,10,10,0,0,1,3.62,2.21,9.88,9.88,0,0,1,2.37,3.57,12.72,12.72,0,0,1,.85,4.82,12.79,12.79,0,0,1-.85,4.82,9.93,9.93,0,0,1-2.37,3.56,10,10,0,0,1-3.62,2.21,14.6,14.6,0,0,1-9.24,0,10,10,0,0,1-3.62-2.21,10.19,10.19,0,0,1-2.37-3.56,12.79,12.79,0,0,1-.85-4.82,12.72,12.72,0,0,1,.85-4.82,10.14,10.14,0,0,1,2.37-3.57,10,10,0,0,1,3.62-2.21A14,14,0,0,1,119.83,18.63Zm0,4.86a5.18,5.18,0,0,0-2.31.48,4.48,4.48,0,0,0-1.6,1.36,6,6,0,0,0-.93,2.06,11.2,11.2,0,0,0,0,5.15,6,6,0,0,0,.93,2.06,4.38,4.38,0,0,0,1.6,1.36,5.18,5.18,0,0,0,2.31.49,4.92,4.92,0,0,0,2.31-.51,4.41,4.41,0,0,0,1.6-1.4,6.12,6.12,0,0,0,.93-2.12,11.5,11.5,0,0,0,.31-2.7,9.51,9.51,0,0,0-.31-2.43,5.84,5.84,0,0,0-.93-2,4.44,4.44,0,0,0-1.6-1.34A5.18,5.18,0,0,0,119.83,23.49Z"/><path class="cls-1" d="M144.82,23.49h-3.77V34.06a2.07,2.07,0,0,0,.57,1.72,2.32,2.32,0,0,0,1.42.42c.35,0,.71,0,1.09,0a6.72,6.72,0,0,0,.81-.08v5c-.4.06-1,.11-1.8.17s-1.55.08-2.25.08a7.71,7.71,0,0,1-3.24-.57,4.55,4.55,0,0,1-1.86-1.5,5.14,5.14,0,0,1-.85-2.09,12.83,12.83,0,0,1-.2-2.32V23.49h-3.08V19.6h3.08V13.36h6.31V19.6h3.77Z"/><path class="cls-1" d="M151.91,32.11a17.22,17.22,0,0,0,3.83,2.66,10.09,10.09,0,0,0,4.51.95,10.62,10.62,0,0,0,1.66-.16,6.94,6.94,0,0,0,1.76-.55,4.18,4.18,0,0,0,1.4-1,2.32,2.32,0,0,0,.57-1.58,2,2,0,0,0-.81-1.68,5.82,5.82,0,0,0-2.43-.88l-6-1a11.11,11.11,0,0,1-6.15-2.69,7,7,0,0,1-2.11-5.25,9.73,9.73,0,0,1,1-4.47,8.39,8.39,0,0,1,2.62-3.06,11.59,11.59,0,0,1,3.76-1.74,17.1,17.1,0,0,1,4.44-.57,17.48,17.48,0,0,1,6.94,1.42,16.15,16.15,0,0,1,5.78,4.13l-5.47,3.93a9.88,9.88,0,0,0-7.74-3.65,4.81,4.81,0,0,0-1.33.21,5.19,5.19,0,0,0-1.34.56,3.43,3.43,0,0,0-1,.92,2,2,0,0,0-.41,1.23,2,2,0,0,0,1,1.8,8,8,0,0,0,3,.95l2.75.45a37.41,37.41,0,0,1,4.06.91,12.76,12.76,0,0,1,3.34,1.48,7,7,0,0,1,2.26,2.35,6.69,6.69,0,0,1,.84,3.48,9.68,9.68,0,0,1-1.3,5.27A9.37,9.37,0,0,1,168,39.67a13,13,0,0,1-4.3,1.49,26,26,0,0,1-4.33.39,17.69,17.69,0,0,1-6.86-1.32,17.44,17.44,0,0,1-6.14-4.55Z"/><path class="cls-1" d="M174.75,19.19h5.83v2h.09a5.86,5.86,0,0,1,2.69-2,9.32,9.32,0,0,1,3.06-.54,9.5,9.5,0,0,1,3.58.68,8.39,8.39,0,0,1,2.94,2,9.65,9.65,0,0,1,2,3.32,13.14,13.14,0,0,1,.73,4.58q0,6.11-2.41,9.09a8.25,8.25,0,0,1-6.78,3,7.7,7.7,0,0,1-5.31-2h-.08v8.51h-6.32ZM180.91,30a14.67,14.67,0,0,0,.22,2.61,6.59,6.59,0,0,0,.75,2.14,4,4,0,0,0,1.36,1.44,3.73,3.73,0,0,0,2,.53,3.63,3.63,0,0,0,2.05-.55,4.09,4.09,0,0,0,1.35-1.52,7.34,7.34,0,0,0,.75-2.33,18.42,18.42,0,0,0,.23-3,10.59,10.59,0,0,0-.23-2.17,6.44,6.44,0,0,0-.73-1.94,4,4,0,0,0-1.33-1.4,3.69,3.69,0,0,0-2-.53,3.78,3.78,0,0,0-2,.53,4.2,4.2,0,0,0-1.4,1.44,6.61,6.61,0,0,0-.79,2.14A13.8,13.8,0,0,0,180.91,30Z"/><path class="cls-1" d="M208.77,18.63a13.9,13.9,0,0,1,4.62.74A10,10,0,0,1,217,21.58a9.88,9.88,0,0,1,2.37,3.57,12.72,12.72,0,0,1,.85,4.82,12.79,12.79,0,0,1-.85,4.82A9.93,9.93,0,0,1,217,38.35a10,10,0,0,1-3.62,2.21,14.57,14.57,0,0,1-9.23,0,10,10,0,0,1-3.63-2.21,10.19,10.19,0,0,1-2.37-3.56,12.79,12.79,0,0,1-.85-4.82,12.72,12.72,0,0,1,.85-4.82,10.14,10.14,0,0,1,2.37-3.57,10,10,0,0,1,3.63-2.21A13.89,13.89,0,0,1,208.77,18.63Zm0,4.86a5.18,5.18,0,0,0-2.31.48,4.48,4.48,0,0,0-1.6,1.36,6.38,6.38,0,0,0-.93,2.06,11.2,11.2,0,0,0,0,5.15,6.38,6.38,0,0,0,.93,2.06,4.38,4.38,0,0,0,1.6,1.36,5.18,5.18,0,0,0,2.31.49,4.92,4.92,0,0,0,2.31-.51,4.41,4.41,0,0,0,1.6-1.4,6.12,6.12,0,0,0,.93-2.12,11,11,0,0,0,.31-2.7,9.09,9.09,0,0,0-.31-2.43,5.84,5.84,0,0,0-.93-2,4.44,4.44,0,0,0-1.6-1.34A5.18,5.18,0,0,0,208.77,23.49Z"/><path class="cls-1" d="M233.72,23.49H230V34.06a2.07,2.07,0,0,0,.57,1.72,2.32,2.32,0,0,0,1.42.42c.35,0,.71,0,1.09,0a6.72,6.72,0,0,0,.81-.08v5c-.4.06-1,.11-1.8.17s-1.55.08-2.25.08a7.71,7.71,0,0,1-3.24-.57,4.55,4.55,0,0,1-1.86-1.5,5.14,5.14,0,0,1-.85-2.09,12.83,12.83,0,0,1-.2-2.32V23.49h-3.08V19.6h3.08V13.36H230V19.6h3.77Z"/><path class="cls-1" d="M247.57,23.49h-3.76V34.06a2.07,2.07,0,0,0,.56,1.72,2.32,2.32,0,0,0,1.42.42c.35,0,.72,0,1.09,0a6.72,6.72,0,0,0,.81-.08v5c-.4.06-1,.11-1.8.17s-1.54.08-2.25.08a7.71,7.71,0,0,1-3.24-.57,4.55,4.55,0,0,1-1.86-1.5,5.14,5.14,0,0,1-.85-2.09,12.83,12.83,0,0,1-.2-2.32V23.49h-3.08V19.6h3.08V13.36h6.32V19.6h3.76Z"/><path class="cls-1" d="M254.7,31.26a6.38,6.38,0,0,0,.47,2.59,4.75,4.75,0,0,0,1.15,1.68,4.17,4.17,0,0,0,1.5.9,5.27,5.27,0,0,0,1.58.26,4.94,4.94,0,0,0,1.56-.22,4.23,4.23,0,0,0,1.27-.71,7.47,7.47,0,0,0,1.18-1.2c.38-.47.79-1,1.25-1.68l4.74,2.47a11.06,11.06,0,0,1-4.23,4.5A12.44,12.44,0,0,1,259,41.31a11.64,11.64,0,0,1-4.47-.81,9.39,9.39,0,0,1-3.32-2.25,9.57,9.57,0,0,1-2.07-3.4,12.45,12.45,0,0,1-.71-4.24q0-5.74,2.82-8.87A9.93,9.93,0,0,1,259,18.63a10.71,10.71,0,0,1,5,1,9.06,9.06,0,0,1,3.27,2.79A11.82,11.82,0,0,1,269,26.5a20.74,20.74,0,0,1,.54,4.76Zm8.51-3.89a5,5,0,0,0-.51-2,4.15,4.15,0,0,0-1-1.28,3.7,3.7,0,0,0-1.34-.68,5.14,5.14,0,0,0-1.42-.21,4,4,0,0,0-1.39.25,4.11,4.11,0,0,0-1.32.74,4.21,4.21,0,0,0-1,1.3,5,5,0,0,0-.55,1.84Z"/><path class="cls-1" d="M271.63,19.19H278v2.19a7.81,7.81,0,0,1,2.63-1.56,11.8,11.8,0,0,1,3.28-.71l0,5.59-.69.08a11.7,11.7,0,0,0-4,1A2.6,2.6,0,0,0,278,28.26V40.74h-6.32Z"/><path class="cls-1" d="M282.5,14.88a3.16,3.16,0,0,1,.26-1.29,3,3,0,0,1,.7-1,3,3,0,0,1,1-.65,3.33,3.33,0,0,1,1.21-.23,3.26,3.26,0,0,1,1.21.23,3.08,3.08,0,0,1,1.7,1.65,3.33,3.33,0,0,1,0,2.58,3.08,3.08,0,0,1-1.7,1.65,3.26,3.26,0,0,1-1.21.23,3.33,3.33,0,0,1-1.21-.23,3,3,0,0,1-1-.65,3,3,0,0,1-.7-1A3.16,3.16,0,0,1,282.5,14.88Zm.8,0a2.73,2.73,0,0,0,.18,1,2.61,2.61,0,0,0,.49.8,2.42,2.42,0,0,0,.76.53,2.31,2.31,0,0,0,1.88,0,2.37,2.37,0,0,0,.75-.53,2.64,2.64,0,0,0,.5-.8,2.73,2.73,0,0,0,0-2,2.64,2.64,0,0,0-.5-.8,2.37,2.37,0,0,0-.75-.53,2.31,2.31,0,0,0-1.88,0,2.42,2.42,0,0,0-.76.53,2.61,2.61,0,0,0-.49.8A2.73,2.73,0,0,0,283.3,14.88Zm1.13-1.8h1.38a1.67,1.67,0,0,1,1,.24.94.94,0,0,1,.34.81,1,1,0,0,1-.26.74,1.13,1.13,0,0,1-.65.28l.94,1.52h-.75l-.92-1.49h-.37v1.49h-.69Zm.69,1.5H286a.7.7,0,0,0,.23-.06.47.47,0,0,0,.17-.14.51.51,0,0,0,0-.48.37.37,0,0,0-.17-.13.69.69,0,0,0-.23-.07h-.86Z"/><path class="cls-2" d="M26,18a9.22,9.22,0,1,1-4.45,12.26A9.23,9.23,0,0,1,26,18"/><polygon class="cls-2" points="47.51 20.91 47.51 10.29 38.52 10.29 38.52 14.01 43.78 14.01 43.78 20.91 47.51 20.91"/><polygon class="cls-2" points="16 20.91 16 14.01 21.26 14.01 21.26 10.29 12.28 10.29 12.28 20.91 16 20.91"/><polygon class="cls-2" points="12.28 31.84 12.28 42.46 21.26 42.46 21.26 38.74 16 38.74 16 31.84 12.28 31.84"/><polygon class="cls-2" points="43.78 31.84 43.78 38.74 38.52 38.74 38.52 42.46 47.51 42.46 47.51 31.84 43.78 31.84"/></svg>